<svg xmlns="http://www.w3.org/2000/svg" version="1.1" xmlns:xlink="http://www.w3.org/1999/xlink" xmlns:svgjs="http://svgjs.dev/svgjs" width="100%" height="100%" viewBox="0 0 1000 600"><rect width="1000" height="600" x="0" y="0" fill="#fbfcff"/><g><rect width="333.3333333333333" height="333.3333333333333" rx="13.333333333333334" ry="13.333333333333334" y="280.56377686972155" fill="#E2V144" transform="matrix(0.4838555052545674,0,0,0.48385550525456733,0,83.60506698200977)" x="258.3415832519531"/><path d="M398.9060083131658 522.2304528025015L398.9060083131658 505.20418614227617L412.6395919994302 505.20418614227617L412.6395919994302 388.46872480902874L378.4182031418534 388.46872480902874L378.4182031418534 411.82707411148664L358.1273960971881 411.82707411148664L358.1273960971881 372.23045065539236L491.88912409066086 372.23045065539236L491.88912409066086 411.82707411148664L471.6264596355167 411.82707411148664L471.6264596355167 388.46872480902874L432.0298361794224 388.46872480902874L432.0298361794224 505.20418614227617L447.48011782646984 505.20418614227617L447.48011782646984 522.2304528025015L398.9060083131658 522.2304528025015Z " fill="#fbfcff" transform="matrix(0.4838555052545674,0,0,0.48385550525456733,0,83.60506698200977)"/><path d="M751.75687318727 488.1694007907755L751.75687318727 475.346171382647L761.1464444728913 475.346171382647L752.2019770179653 449.72090798689936L708.772560394403 449.72090798689936L700.0400471445699 475.346171382647L711.6763330041774 475.346171382647L711.6763330041774 488.1694007907755L675.0082555230828 488.1694007907755L675.0082555230828 475.346171382647L684.8429306393995 475.346171382647L720.0273286848429 375.197809476189L742.0069797529904 375.197809476189L777.1065961163966 475.346171382647L788.4249506683647 475.346171382647L788.4249506683647 488.1694007907755L751.75687318727 488.1694007907755ZM730.307107631855 386.83409533579646L713.0116444962636 437.3427824094662L747.8781112340674 437.3427824094662L730.307107631855 386.83409533579646ZM900.8666564702186 488.61450462147087L887.0048514571342 488.61450462147087L887.0048514571342 465.95660009702567Q884.1858605293969 471.848926998612 879.925581007027 476.21518362352845Q875.6864969051662 480.5602448279356 870.4724234598776 483.4004311761823Q865.258350014589 486.2406175244289 859.3236322719841 487.63951527804295Q853.4101099498885 489.05960845216623 847.2846334226999 489.05960845216623L847.2846334226999 489.05960845216623Q836.2630147578622 489.05960845216623 826.958225154278 485.37160528354747Q817.6322401301845 481.6836021149287 810.0654750083633 473.62934232139344Q802.498709886542 465.5962779483675 798.513970830793 454.5534638630205Q794.529231775044 443.5318451981828 794.529231775044 431.5352371899171L794.529231775044 431.5352371899171Q794.529231775044 419.47504292012354 798.513970830793 408.7289647219068Q802.498709886542 398.0040819441993 809.7051528597051 390.0346038327013Q816.890400412359 382.06512572120323 826.8310526312222 377.50811031170304Q836.7929002705947 372.9722903227121 848.407990709693 372.9722903227121L848.407990709693 372.9722903227121Q859.1328734874004 372.9722903227121 866.8480065527868 376.0244308760518Q874.5631396181732 379.0765714293915 880.0315581095734 383.442828054308Q885.521172021483 387.7878892587151 888.7852667799157 391.7514328939548L888.7852667799157 391.7514328939548L896.0341005940975 391.7514328939548L896.0341005940975 405.0197661327787L880.0103626890641 405.0197661327787Q875.0082434488686 396.5204025085481 866.7844202912589 391.60306495038975Q858.5394017131399 386.68572739223134 848.344404448165 386.83409533579646L848.344404448165 386.83409533579646Q839.7602591418972 386.83409533579646 832.617402430262 390.47970766339665Q825.4533502981175 394.12531999099684 820.3452539553754 400.3143827797134Q815.2583530331426 406.5034455684299 812.4181666848959 414.5577053619652Q809.5779803366493 422.5907697349911 809.5779803366493 431.5352371899171L809.5779803366493 431.5352371899171Q809.5779803366493 441.45469398827106 812.7149025720262 449.9328621919924Q815.8518248074031 458.43222581622297 820.6843806835243 463.7310809435488Q825.5381319801547 469.0087406503653 832.6385978507712 472.48478961389105Q839.7602591418972 475.93964315690755 848.407990709693 475.93964315690755L848.407990709693 475.93964315690755Q862.7148995534726 475.93964315690755 871.8713212134917 468.98754522985604Q881.04893829402 462.01425188229524 884.6945506216201 447.26223920782013L884.6945506216201 447.26223920782013L853.1133740627582 447.26223920782013L853.1133740627582 434.4390097996917L900.8666564702186 434.4390097996917L900.8666564702186 488.61450462147087ZM914.5800935397378 488.1694007907755Q914.5800935397378 488.1694007907755 914.5800935397378 488.1694007907755ZM1101.3117482266998 388.1058205663547L1101.3117482266998 375.197809476189L1137.9798257077944 375.197809476189L1137.9798257077944 388.1058205663547L1128.1451505914777 388.1058205663547L1095.8645251558087 488.1694007907755L1073.0794481083078 488.1694007907755L1042.4520654723647 389.73786794557105L1014.1985699334632 488.1694007907755L991.6254470910552 488.1694007907755L958.687763619598 388.1058205663547L948.7047205597162 388.1058205663547L948.7047205597162 375.197809476189L985.3727980408107 375.197809476189L985.3727980408107 388.1058205663547L975.538122924494 388.1058205663547L1002.8802153814952 474.90106755195166L1031.7059872741477 375.197809476189L1054.003569649935 375.197809476189L1084.694538547406 474.90106755195166L1112.56651651714 388.1058205663547L1101.3117482266998 388.1058205663547ZM1214.8768113155468 451.3529553661157L1159.2812233196441 451.3529553661157Q1159.2812233196441 454.6382455450577 1159.7687179913582 457.3512593702485Q1160.2562126630721 460.0854686159487 1161.146420324463 462.5441373950278L1161.146420324463 462.5441373950278Q1163.9018249906724 469.9837299937933 1169.9849106768424 473.75651484444927Q1176.046800942503 477.50810427459595 1183.719543166871 477.50810427459595L1183.719543166871 477.50810427459595Q1189.7602380120225 477.50810427459595 1195.4618061290248 475.833666054361Q1201.1633742460276 474.15922783412606 1207.416023296272 470.5772017680538L1207.416023296272 470.5772017680538L1213.011614310728 480.05155473571233Q1205.4024583478881 485.265628181001 1197.7297161235206 487.78788322160807Q1190.0569738991526 490.33133368272445 1181.7907599005243 490.33133368272445L1181.7907599005243 490.33133368272445Q1173.9696497325913 490.33133368272445 1167.293092272161 487.72429696008015Q1160.6165348117304 485.11726023743586 1155.8263697766279 479.9667730536751Q1151.015009321016 474.83748129042374 1148.3019954958252 467.164739066056Q1145.567786250125 459.47080142117886 1145.567786250125 449.275804156204L1145.567786250125 449.275804156204Q1145.567786250125 441.0095901575757 1147.878087085639 433.65477924084746Q1150.1883879211532 426.3211637446285 1154.787794171672 420.85274525322825Q1159.3660050016815 415.3631313413187 1166.1485395646584 412.16262284441393Q1172.9310741276356 408.9621143475091 1181.9391278440894 408.9621143475091L1181.9391278440894 408.9621143475091Q1190.650445673413 408.9621143475091 1196.5003817339807 411.611541911172Q1202.3503177945486 414.2397740543256 1206.0383209631673 418.6060306792421Q1209.726324131786 422.9722873041586 1211.6339119776235 428.54668289810536Q1213.5414998234608 434.14227391256145 1214.2833395412863 439.9498191321105L1214.2833395412863 439.9498191321105Q1214.6436616899446 442.7900054803572 1214.7708342130004 445.69377809013173Q1214.8768113155468 448.59755069990626 1214.8768113155468 451.3529553661157L1214.8768113155468 451.3529553661157ZM1180.9641385006616 420.57720478660735L1180.9641385006616 420.57720478660735Q1176.1315826245404 420.57720478660735 1172.5071657174494 421.95490711971206Q1168.903944230868 423.33260945281677 1166.3604937697514 425.9184507549518Q1163.8382387291445 428.48309663657744 1162.3121684524747 432.21349064621484Q1160.7860981758047 435.94388465585223 1160.02306303747 440.56448632688034L1160.02306303747 440.56448632688034L1200.0400169590343 440.56448632688034Q1199.7432810719042 436.24062054298247 1198.6623146259299 432.573812794873Q1197.5813481799553 428.9282004672728 1195.3558290264784 426.2575774831006Q1193.1091144524923 423.5657590784191 1189.6118700684572 422.08207964276784Q1186.1146256844222 420.57720478660735 1180.9641385006616 420.57720478660735ZM1230.5190316514127 385.0324845925057L1230.5190316514127 372.2304506048865L1255.5508232728998 372.2304506048865L1255.5508232728998 417.3766962897025Q1260.4681608310582 413.5827160185372 1266.2969014711166 411.3360014445511Q1272.1044466906656 409.1104822910743 1278.2935094793825 409.1104822910743L1278.2935094793825 409.1104822910743Q1285.8814700217129 409.1104822910743 1292.2189007539944 411.9506686393209Q1298.5563314862763 414.7696595670582 1303.1345423162857 419.9201467508189Q1307.7127531462952 425.0494385140703 1310.2562036074116 432.2558814872334Q1312.7784586480186 439.44112903988724 1312.7784586480186 448.1524468692109L1312.7784586480186 448.1524468692109Q1312.7784586480186 457.47843189330433 1309.9594677202815 465.0240015946163Q1307.1192813720347 472.5907667164376 1302.0959667113298 478.03798978732857Q1297.0726520506248 483.4852128582195 1290.1417495440826 486.41018088850336Q1283.2108470375406 489.35634433929647 1274.9234376184029 489.35634433929647L1274.9234376184029 489.35634433929647Q1269.200674080891 489.35634433929647 1264.156163999677 487.6819061190615Q1259.132849338972 486.0074678988266 1255.5508232728998 483.3156494941451L1255.5508232728998 483.3156494941451L1255.5508232728998 488.1694007907755L1241.6890182598154 488.1694007907755L1241.6890182598154 385.0324845925057L1230.5190316514127 385.0324845925057ZM1274.6267017312728 421.31904450443295L1274.6267017312728 421.31904450443295Q1269.200674080891 421.31904450443295 1264.1985548406956 423.5657590784191Q1259.2176310210093 425.79127823189594 1255.5508232728998 429.60645392357054L1255.5508232728998 429.60645392357054L1255.5508232728998 471.10708728078635Q1257.945905790451 473.5657560598655 1262.5665074614792 475.47334390570285Q1267.1871091325074 477.35973633103083 1274.1815979005773 477.35973633103083L1274.1815979005773 477.35973633103083Q1278.9505675151706 477.35973633103083 1283.3592149811059 475.5793210082494Q1287.7466670265314 473.7777102649586 1291.0955434670013 470.17448877837705Q1294.4656153279805 466.55007187128615 1296.457984855855 461.1876304824324Q1298.471549804239 455.82518909357873 1298.471549804239 448.6823323819435L1298.471549804239 448.6823323819435Q1298.471549804239 442.11175202405946 1296.585157378911 437.046046522336Q1294.6775695330737 431.9803410206125 1291.4346701951501 428.48309663657744Q1288.1917708572269 424.98585225254243 1283.867905073329 423.1630460887423Q1279.544039289431 421.31904450443295 1274.6267017312728 421.31904450443295ZM1372.613130745782 385.0324845925057L1372.613130745782 372.2304506048865L1396.9878643314808 372.2304506048865L1396.9878643314808 475.346171382647L1408.3062188834485 475.346171382647L1408.3062188834485 488.1694007907755L1383.1260593183963 488.1694007907755L1383.1260593183963 481.8319700584938Q1379.3956653087587 485.62595032965913 1374.4783277506006 487.7666878010988Q1369.5609901924422 489.8862298520291 1363.3083411421978 489.8862298520291L1363.3083411421978 489.8862298520291Q1355.4872309742648 489.8862298520291 1348.7470872523065 487.17321602683825Q1342.0069435303478 484.4390067811381 1337.0472151311708 479.18254249483095Q1332.087486731994 473.947273629033 1329.2896912247659 466.29572682517454Q1326.491895717538 458.66537544182535 1326.491895717538 448.8307003255086L1326.491895717538 448.8307003255086Q1326.491895717538 439.8862328705826 1329.1837141222193 432.5526173743637Q1331.8543371063915 425.19780645763547 1336.77167466455 420.02612385336545Q1341.6890122227085 414.85444124909543 1348.6199147292507 411.9718640598302Q1355.5508172357927 409.1104822910743 1364.0501808600231 409.1104822910743L1364.0501808600231 409.1104822910743Q1369.6457718744794 409.1104822910743 1374.2663735455073 410.3398166806138Q1378.8869752165358 411.56915107015345 1383.1260593183963 414.6212916234931L1383.1260593183963 414.6212916234931L1383.1260593183963 385.0324845925057L1372.613130745782 385.0324845925057ZM1365.088756464979 477.8048401617262L1365.088756464979 477.8048401617262Q1371.2778192536957 477.8048401617262 1375.4533170940283 475.9820339979261Q1379.6288149343611 474.15922783412606 1383.1260593183963 470.51361550652587L1383.1260593183963 470.51361550652587L1383.1260593183963 427.2961530880565Q1379.3956653087587 424.15923085267957 1374.5631094326375 422.7391376785563Q1369.7093581360073 421.31904450443295 1364.6436526342839 421.31904450443295L1364.6436526342839 421.31904450443295Q1359.7263150761253 421.31904450443295 1355.4024492922276 423.1630460887423Q1351.0785835083295 424.98585225254243 1347.8356841704062 428.48309663657744Q1344.6139802529922 431.9803410206125 1342.7487832481736 437.046046522336Q1340.8835862433548 442.11175202405946 1340.8835862433548 448.6823323819435L1340.8835862433548 448.6823323819435Q1340.8835862433548 455.82518909357873 1342.6640015661362 461.27241216446964Q1344.4656123094271 466.69843981485127 1347.6661208063317 470.4076384039794Q1350.8666293032368 474.09564157259814 1355.3388630306997 475.93964315690755Q1359.8110967581626 477.8048401617262 1365.088756464979 477.8048401617262ZM1490.2901054134338 451.3529553661157L1434.694517417531 451.3529553661157Q1434.694517417531 454.6382455450577 1435.182012089245 457.3512593702485Q1435.6695067609592 460.0854686159487 1436.55971442235 462.5441373950278L1436.55971442235 462.5441373950278Q1439.3151190885592 469.9837299937933 1445.37700935422 473.75651484444927Q1451.4600950403901 477.50810427459595 1459.1328372647579 477.50810427459595L1459.1328372647579 477.50810427459595Q1465.1735321099093 477.50810427459595 1470.8751002269116 475.833666054361Q1476.5766683439144 474.15922783412606 1482.829317394159 470.5772017680538L1482.829317394159 470.5772017680538L1488.424908408615 480.05155473571233Q1480.815752445775 485.265628181001 1473.1430102214074 487.78788322160807Q1465.4702679970394 490.33133368272445 1457.2040539984112 490.33133368272445L1457.2040539984112 490.33133368272445Q1449.3829438304783 490.33133368272445 1442.706386370048 487.72429696008015Q1436.0298289096172 485.11726023743586 1431.2184684540055 479.9667730536751Q1426.428303418903 474.83748129042374 1423.6940941732028 467.164739066056Q1420.981080348012 459.47080142117886 1420.981080348012 449.275804156204L1420.981080348012 449.275804156204Q1420.981080348012 441.0095901575757 1423.2913811835258 433.65477924084746Q1425.60168201904 426.3211637446285 1430.1798928490496 420.85274525322825Q1434.758103679059 415.3631313413187 1441.5406382420363 412.16262284441393Q1448.323172805013 408.9621143475091 1457.3524219419762 408.9621143475091L1457.3524219419762 408.9621143475091Q1466.0637397713 408.9621143475091 1471.9136758318677 411.611541911172Q1477.7636118924354 414.2397740543256 1481.451615061054 418.6060306792421Q1485.139618229673 422.9722873041586 1487.0472060755103 428.54668289810536Q1488.9335985008383 434.14227391256145 1489.6754382186639 439.9498191321105L1489.6754382186639 439.9498191321105Q1490.0569557878314 442.7900054803572 1490.162932890378 445.69377809013173Q1490.2901054134338 448.59755069990626 1490.2901054134338 451.3529553661157L1490.2901054134338 451.3529553661157ZM1456.3774325985485 420.57720478660735L1456.3774325985485 420.57720478660735Q1451.523681301918 420.57720478660735 1447.9204598153365 421.95490711971206Q1444.2960429082457 423.33260945281677 1441.7737878676385 425.9184507549518Q1439.230337406522 428.48309663657744 1437.704267129852 432.21349064621484Q1436.1781968531825 435.94388465585223 1435.4363571353567 440.56448632688034L1435.4363571353567 440.56448632688034L1475.4533110569214 440.56448632688034Q1475.156575169791 436.24062054298247 1474.0756087238167 432.573812794873Q1472.9946422778423 428.9282004672728 1470.7691231243655 426.2575774831006Q1468.5224085503794 423.5657590784191 1465.0251641663442 422.08207964276784Q1461.527919782309 420.57720478660735 1456.3774325985485 420.57720478660735ZM1553.68560815676 431.6836051334823Q1553.68560815676 428.54668289810536 1552.2443195621272 426.36355458564714Q1550.7818355469853 424.15923085267957 1548.4715347114713 422.78152851957486Q1546.1612338759571 421.40382618647016 1543.3422429482198 420.76796357119105Q1540.5020565999732 420.13210095591194 1537.831433615801 420.13210095591194L1537.831433615801 420.13210095591194Q1534.842879323989 420.13210095591194 1532.3418197038914 420.8103544122097Q1529.8407600837936 421.48860786850736 1528.0603447610122 422.7391376785563Q1526.2799294382307 424.01086290911445 1525.262549253784 425.8336690729145Q1524.2663644898469 427.65647523671464 1524.2663644898469 429.9031898107008L1524.2663644898469 429.9031898107008Q1524.2663644898469 433.7819517639033 1526.5978607458703 436.0498617583987Q1528.950552422403 438.31777175289415 1534.4613617548216 440.24655501924076L1534.4613617548216 440.24655501924076L1549.298156111334 445.4818238850387Q1558.8360953405206 448.6823323819435 1563.2235473859464 454.19314171436235Q1567.6321948518814 459.7039510467812 1567.6321948518814 467.37669327114895L1567.6321948518814 467.37669327114895Q1567.6321948518814 472.5271804549097 1565.5762390624789 476.8086553977889Q1563.5202832730768 481.0901303406682 1559.76869384293 484.0998800529893Q1555.9959089922738 487.1308251858197 1550.7182492854574 488.8052634060546Q1545.4193941581314 490.47970162628957 1538.9335954822848 490.47970162628957L1538.9335954822848 490.47970162628957Q1529.9255417658308 490.47970162628957 1524.2663644898469 487.57592901651503Q1518.607187213863 484.67215640674044 1515.533851240014 479.90318679214727L1515.533851240014 479.90318679214727L1507.797522754118 479.90318679214727L1507.797522754118 467.0799573840187L1523.227788884891 467.0799573840187Q1523.227788884891 470.28046588092354 1524.6054912179957 472.54837587541897Q1525.9831935511004 474.83748129042374 1528.251103545596 476.2363790440378Q1530.5190135400915 477.65647221816107 1533.380395308847 478.3347256744588Q1536.2629724981125 479.0129791307565 1539.230331369415 479.0129791307565L1539.230331369415 479.0129791307565Q1542.1341039791894 479.0129791307565 1544.825922383871 478.2923348334402Q1547.5177407885526 477.59288595663315 1549.5525011574457 476.21518362352845Q1551.6084569468483 474.83748129042374 1552.7954004953692 472.88750260356784Q1553.9823440438902 470.9587193372212 1553.9823440438902 468.50005055814205L1553.9823440438902 468.50005055814205Q1553.9823440438902 464.7696565485047 1551.5660661058296 462.16261982586036Q1549.149788167769 459.55558310321607 1543.3422429482198 457.47843189330433L1543.3422429482198 457.47843189330433L1528.5902302737447 451.94642714037616Q1519.5609811367815 448.7459186434714 1515.2159199323744 443.7861902442944Q1510.8496633074578 438.84765726562676 1510.8496633074578 431.386869246352L1510.8496633074578 431.386869246352Q1510.8496633074578 426.4695316881936 1512.672469471258 422.2940338478609Q1514.495275635058 418.1185360075282 1517.9713245985838 415.1087862952071Q1521.4261781416 412.099036582886 1526.4282973817958 410.38220752163244Q1531.409221201482 408.66537846037886 1537.831433615801 408.66537846037886L1537.831433615801 408.66537846037886Q1546.0976476144292 408.66537846037886 1551.672043208376 410.9756792958929Q1557.2676342228322 413.285980131407 1561.739867950295 418.8603757253537L1561.739867950295 418.8603757253537L1568.9675063439674 418.8603757253537L1568.9675063439674 431.6836051334823L1553.68560815676 431.6836051334823ZM1582.5325754699215 423.7777132835121L1582.5325754699215 410.9756792958929L1607.7127350349738 410.9756792958929L1607.7127350349738 475.346171382647L1619.3490208945814 475.346171382647L1619.3490208945814 488.1694007907755L1582.6809434134866 488.1694007907755L1582.6809434134866 475.346171382647L1593.7025620783245 475.346171382647L1593.7025620783245 423.7777132835121L1582.5325754699215 423.7777132835121ZM1591.0955253556801 383.6335868388917L1591.0955253556801 383.6335868388917Q1591.0955253556801 381.6836081520358 1591.8797559145244 379.9455836702729Q1592.6639864733686 378.1863637680007 1593.9781025449454 376.8722476964239Q1595.271023196013 375.5793270453565 1597.0726339393036 374.79509648651225Q1598.853049262085 374.010865927668 1600.8666142104692 374.010865927668L1600.8666142104692 374.010865927668Q1602.7953974768154 374.010865927668 1604.5546173790879 374.79509648651225Q1606.2926418608506 375.5793270453565 1607.6067579324274 376.8722476964239Q1608.899678583495 378.1863637680007 1609.6839091423392 379.9455836702729Q1610.4681397011834 381.6836081520358 1610.4681397011834 383.6335868388917L1610.4681397011834 383.6335868388917Q1610.4681397011834 385.62595636676616 1609.6839091423392 387.42756711005694Q1608.899678583495 389.2079824328385 1607.6067579324274 390.5856847659432Q1606.2926418608506 391.9633870990479 1604.5546173790879 392.7476176578921Q1602.7953974768154 393.53184821673636 1600.8666142104692 393.53184821673636L1600.8666142104692 393.53184821673636Q1598.853049262085 393.53184821673636 1597.0726339393036 392.7476176578921Q1595.271023196013 391.9633870990479 1593.9781025449454 390.5856847659432Q1592.6639864733686 389.2079824328385 1591.8797559145244 387.42756711005694Q1591.0955253556801 385.62595636676616 1591.0955253556801 383.6335868388917ZM1688.573264277966 482.5102235147915L1688.573264277966 481.38686622779846Q1684.7580885862913 485.4139961245661 1679.7347739255863 487.63951527804295Q1674.7114592648816 489.8862298520291 1668.2892468505627 489.8862298520291L1668.2892468505627 489.8862298520291Q1660.4681366826298 489.8862298520291 1653.7279929606714 487.17321602683825Q1646.987849238713 484.4390067811381 1642.0281208395359 479.18254249483095Q1637.068392440359 473.947273629033 1634.2917923536402 466.29572682517454Q1631.493996846412 458.66537544182535 1631.493996846412 448.8307003255086L1631.493996846412 448.8307003255086Q1631.493996846412 439.8862328705826 1634.1646198305843 432.5526173743637Q1636.8564382352658 425.19780645763547 1641.7737757934244 420.02612385336545Q1646.6911133515825 414.85444124909543 1653.6220158581248 411.9718640598302Q1660.552918364667 409.1104822910743 1669.0522819888977 409.1104822910743L1669.0522819888977 409.1104822910743Q1674.8598272084466 409.1104822910743 1679.5228197204935 410.4034029421417Q1684.164616812031 411.7175190137186 1688.573264277966 414.91802751062335L1688.573264277966 414.91802751062335L1688.573264277966 410.9756792958929L1702.4350692910505 410.9756792958929L1702.4350692910505 485.11726023743586Q1702.4350692910505 503.4512989779832 1693.744946882236 512.8408702636045Q1685.0548244734216 522.2304415492258 1666.7419811533834 522.2304415492258L1666.7419811533834 522.2304415492258Q1662.714851256616 522.2304415492258 1658.306203790681 521.6369697749653Q1653.9187517452551 521.0223025801956 1649.6372768023757 519.7293819291281Q1645.3558018594965 518.4152658575513 1641.2862811217103 516.4017009091674Q1637.216760383924 514.409331381293 1633.8042976819263 511.48436335100916L1633.8042976819263 511.48436335100916L1641.2438902806919 500.2507904810784Q1643.490604854678 502.179573747425 1646.3519866234337 503.81162112664134Q1649.21336839219 505.464863926367 1652.4986585711317 506.6094166338694Q1655.7839487500735 507.77516476188106 1659.2811931341087 508.43222279766945Q1662.7784375181438 509.11047625396714 1666.2968773226883 509.11047625396714L1666.2968773226883 509.11047625396714Q1672.0196408602 509.11047625396714 1676.2375295415516 507.9235327054462Q1680.4342228023936 506.7153937364159 1683.1684320480936 503.7056440240948Q1685.8814458732843 500.69589431177377 1687.2167573653703 495.54540712801304Q1688.573264277966 490.39491994425236 1688.573264277966 482.5102235147915L1688.573264277966 482.5102235147915ZM1670.0908575938536 477.8048401617262L1670.0908575938536 477.8048401617262Q1673.5245157163606 477.8048401617262 1676.3435066440977 477.1477821259378Q1679.1836929923445 476.4695286696401 1681.4939938278585 475.38856222366564Q1683.8042946633727 474.3075957776912 1685.5423191451357 472.88750260356784Q1687.3015390474077 471.4674094294445 1688.573264277966 469.9201437322654L1688.573264277966 469.9201437322654L1688.573264277966 427.65647523671464Q1684.7580885862913 424.3075987962447 1679.8195556076237 422.8239193605935Q1674.8598272084466 421.31904450443295 1669.645753763158 421.31904450443295L1669.645753763158 421.31904450443295Q1664.7284162049998 421.31904450443295 1660.4045504211017 423.1630460887423Q1656.080684637204 424.98585225254243 1652.8377852992805 428.48309663657744Q1649.594885961357 431.9803410206125 1647.7296889565384 437.046046522336Q1645.8644919517199 442.11175202405946 1645.8644919517199 448.6823323819435L1645.8644919517199 448.6823323819435Q1645.8644919517199 455.82518909357873 1647.6661026950107 461.27241216446964Q1649.446518017792 466.69843981485127 1652.647026514697 470.4076384039794Q1655.8475350116016 474.09564157259814 1660.3197687390646 475.93964315690755Q1664.7920024665277 477.8048401617262 1670.0908575938536 477.8048401617262ZM1772.3163707102233 488.1694007907755L1772.3163707102233 475.346171382647L1783.210816852005 475.346171382647L1783.210816852005 440.09818707567564Q1783.210816852005 431.23850130278686 1778.6961922835237 426.6602904727774Q1774.1815677150419 422.08207964276784 1765.7669857728486 422.08207964276784L1765.7669857728486 422.08207964276784Q1760.9132344762177 422.08207964276784 1755.99589691806 424.3923804782819Q1751.0785593599014 426.70268131379595 1746.6911073144759 430.1151440157938L1746.6911073144759 430.1151440157938L1746.6911073144759 475.346171382647L1757.5643580357485 475.346171382647L1757.5643580357485 488.1694007907755L1721.5109477494232 488.1694007907755L1721.5109477494232 475.346171382647L1732.2358305271307 475.346171382647L1732.2358305271307 423.7777132835121L1721.5109477494232 423.7777132835121L1721.5109477494232 410.9756792958929L1746.0976355402152 410.9756792958929L1746.0976355402152 420.068514694384L1746.2460034837802 420.068514694384Q1748.7046722628595 417.9065818024351 1751.5024677700874 415.9566031155792Q1754.279067856806 414.0278198492326 1757.3524038306552 412.6077266751093Q1760.4045443839948 411.18763350098595 1763.711029983446 410.38220752163244Q1767.038711003407 409.5555861217696 1770.6843233310067 409.5555861217696L1770.6843233310067 409.5555861217696Q1776.8733861197236 409.5555861217696 1781.8543099394094 411.27241518302316Q1786.8564291796054 412.98924424427673 1790.3536735636405 416.4864886283118Q1793.8509179476753 419.9837330123468 1795.7585057935128 425.47334692425636Q1797.6660936393498 430.9417654156566 1797.6660936393498 438.4025534349314L1797.6660936393498 438.4025534349314L1797.6660936393498 475.346171382647L1808.3909764170573 475.346171382647L1808.3909764170573 488.1694007907755L1772.3163707102233 488.1694007907755Z " fill="#E2V144" transform="matrix(0.4838555052545674,0,0,0.48385550525456733,0,83.60506698200977)"/></g></svg>